# xmcd
# 
# Track frame offsets:
#     150
#     21300
#     42825
#     63787
# 
# Disc length: 1134
# 
# Revision: 12
# Processed by: cddbd v1.5.2PL0 Copyright (c) Steve Scherf et al.
# Submitted via: BonkEnc v1.0.8
# 
DISCID=2a046c04
DTITLE=坂本真綾 - トライアングラー
DYEAR=2008
DGENRE=seiyu
TTITLE0=トライアングラー
TTITLE1=ことみち
TTITLE2=トライアングラー (w/o maaya)
TTITLE3=ことみち (w/o maaya)
EXTD=YEAR: 2008
EXTT0=
EXTT1=
EXTT2=
EXTT3=
PLAYORDER=
